<svg xmlns="http://www.w3.org/2000/svg" viewBox="0 0 800 500" width="100%" height="100%">
  <rect width="100%" height="100%" fill="#fffaf2"/>
  <rect x="20" y="20" width="760" height="460" fill="none" stroke="#681416" stroke-width="2" rx="6"/>
  
  <!-- Stylized Book Illustration -->
  <path d="M 280 320 C 350 320, 380 290, 400 280 C 420 290, 450 320, 520 320 L 520 180 C 450 180, 420 150, 400 140 C 380 150, 350 180, 280 180 Z" fill="#e7d2ad" opacity="0.5"/>
  <path d="M 400 140 L 400 280" stroke="#681416" stroke-width="2" opacity="0.6"/>
  <path d="M 270 330 C 350 330, 380 300, 400 290 C 420 300, 450 330, 530 330" fill="none" stroke="#681416" stroke-width="3" stroke-linecap="round" opacity="0.8"/>
  <path d="M 270 190 C 350 190, 380 160, 400 150" fill="none" stroke="#681416" stroke-width="2" stroke-linecap="round" opacity="0.8"/>
  <path d="M 530 190 C 450 190, 420 160, 400 150" fill="none" stroke="#681416" stroke-width="2" stroke-linecap="round" opacity="0.8"/>
  <path d="M 270 190 L 270 330 M 530 190 L 530 330" stroke="#681416" stroke-width="2" opacity="0.8"/>

  <!-- Stylized Lamp/Light of Knowledge -->
  <circle cx="400" cy="100" r="15" fill="#c49b63" opacity="0.2"/>
  <path d="M 400 100 L 400 140" stroke="#8f1f22" stroke-width="2" stroke-linecap="round" opacity="0.8"/>
  <path d="M 388 95 C 388 80, 412 80, 412 95 Z" fill="#8f1f22" opacity="0.8"/>

  <text x="50%" y="400" text-anchor="middle" font-family="'Cormorant Garamond', Georgia, serif" font-size="28" font-weight="bold" fill="#3f0d0f">Vasant Valley Legacy</text>
</svg>
