<svg xmlns="http://www.w3.org/2000/svg" viewBox="0 0 800 500" width="100%" height="100%">
  <rect width="100%" height="100%" fill="#fffaf2"/>
  <rect x="20" y="20" width="760" height="460" fill="none" stroke="#681416" stroke-width="2" rx="6"/>
  
  <!-- Stylized Lab Flask & Growing plant/leaves -->
  <path d="M 375 220 L 375 140 L 425 140 L 425 220 L 470 300 C 480 320, 460 340, 435 340 L 365 340 C 340 340, 320 320, 330 300 Z" fill="#e7d2ad" opacity="0.5" stroke="#681416" stroke-width="2"/>
  <path d="M 350 310 C 370 290, 430 290, 450 310" fill="none" stroke="#8f1f22" stroke-width="2" opacity="0.6"/>
  
  <!-- Leaves sprout -->
  <path d="M 400 135 C 380 110, 400 90, 400 90 C 400 90, 420 110, 400 135" fill="#8f1f22" opacity="0.7"/>
  <path d="M 400 135 C 410 115, 430 115, 430 115 C 430 115, 420 130, 400 135" fill="#c49b63" opacity="0.6"/>

  <text x="50%" y="410" text-anchor="middle" font-family="'Cormorant Garamond', Georgia, serif" font-size="28" font-weight="bold" fill="#3f0d0f">Inquiry &amp; Discovery</text>
</svg>
